<svg width="104" height="23" fill="none" xmlns="http://www.w3.org/2000/svg"><path d="M14.056 14.4h-7.8L4.768 18H.784L8.272 1.2h3.84L19.624 18h-4.08l-1.488-3.6Zm-1.224-2.952-2.664-6.432-2.664 6.432h5.328Zm14.394 6.744c-1.376 0-2.616-.28-3.72-.84-1.088-.576-1.944-1.368-2.568-2.376-.608-1.008-.912-2.152-.912-3.432 0-1.28.304-2.424.912-3.432a6.4 6.4 0 0 1 2.568-2.352c1.104-.576 2.344-.864 3.72-.864 1.36 0 2.544.288 3.552.864a4.98 4.98 0 0 1 2.232 2.424l-2.904 1.56c-.672-1.184-1.64-1.776-2.904-1.776-.976 0-1.784.32-2.424.96-.64.64-.96 1.512-.96 2.616s.32 1.976.96 2.616c.64.64 1.448.96 2.424.96 1.28 0 2.248-.592 2.904-1.776l2.904 1.584c-.464 1.024-1.208 1.824-2.232 2.4-1.008.576-2.192.864-3.552.864Zm13.39-5.256-1.8 1.776V18h-3.744V.192h3.744v10.08l5.472-5.184h4.464l-5.376 5.472L49.232 18h-4.536l-4.08-5.064Z" fill="#152B79"/><path d="M54.492 6.792c.448-.624 1.047-1.096 1.8-1.416.767-.32 1.648-.48 2.64-.48v3.456a13.512 13.512 0 0 0-.84-.048c-1.072 0-1.913.304-2.52.912-.608.592-.913 1.488-.913 2.688V18h-3.743V5.088h3.576v1.704Zm12.693 11.4c-1.36 0-2.585-.28-3.672-.84a6.439 6.439 0 0 1-2.52-2.376c-.608-1.008-.913-2.152-.913-3.432 0-1.28.305-2.424.913-3.432a6.27 6.27 0 0 1 2.52-2.352c1.087-.576 2.312-.864 3.672-.864 1.36 0 2.575.288 3.647.864a6.27 6.27 0 0 1 2.52 2.352c.608 1.008.912 2.152.912 3.432 0 1.28-.303 2.424-.911 3.432a6.439 6.439 0 0 1-2.52 2.376c-1.073.56-2.288.84-3.648.84Zm0-3.072c.96 0 1.743-.32 2.352-.96.623-.656.935-1.528.935-2.616s-.311-1.952-.935-2.592c-.609-.656-1.393-.984-2.353-.984-.96 0-1.751.328-2.376.984-.624.64-.936 1.504-.936 2.592s.313 1.96.936 2.616c.624.64 1.416.96 2.376.96ZM89.23 5.088 83.4 18.792c-.593 1.488-1.329 2.536-2.209 3.144-.864.608-1.912.912-3.144.912a6.555 6.555 0 0 1-1.992-.312c-.656-.208-1.192-.496-1.608-.864l1.368-2.664c.288.256.617.456.984.6a3.2 3.2 0 0 0 1.128.216c.512 0 .928-.128 1.248-.384.32-.24.609-.648.865-1.224l.047-.12-5.591-13.008h3.864l3.624 8.76 3.648-8.76h3.6ZM103.56.192V18h-3.576v-1.488c-.928 1.12-2.272 1.68-4.032 1.68-1.216 0-2.32-.272-3.312-.816a5.865 5.865 0 0 1-2.304-2.328c-.56-1.008-.84-2.176-.84-3.504 0-1.328.28-2.496.84-3.504a5.865 5.865 0 0 1 2.304-2.328c.992-.544 2.096-.816 3.312-.816 1.648 0 2.936.52 3.864 1.56V.192h3.744ZM96.6 15.12c.944 0 1.728-.32 2.352-.96.624-.656.936-1.528.936-2.616s-.312-1.952-.936-2.592c-.624-.656-1.408-.984-2.352-.984-.96 0-1.752.328-2.376.984-.624.64-.936 1.504-.936 2.592s.312 1.96.936 2.616c.624.64 1.416.96 2.376.96Z" fill="#3250BD"/></svg>